<svg xmlns="http://www.w3.org/2000/svg" xmlns:xlink="http://www.w3.org/1999/xlink" fill="#FFFFFF" id="b385ca18-4b85-46d4-bb4b-571c73a19812" x="0px" y="0px" viewBox="0 0 30.1 18.2" style="enable-background:new 0 0 30.1 18.2;" xml:space="preserve"><title>arrow-icon-size3</title><path d="M29.8,8.5l-8.2-8.2C21.4,0.1,21.2,0,21,0s-0.5,0.1-0.6,0.3c-0.3,0.3-0.3,0.9,0,1.2l6.7,6.8H0.8l0,0C0.3,8.3-0.1,8.7,0,9.2  c0,0.5,0.4,0.9,0.9,0.8h26.2l-6.8,6.8l0,0c-0.3,0.3-0.3,0.9,0,1.2c0.2,0.1,0.4,0.2,0.6,0.2l0,0c0.3,0,0.5-0.1,0.6-0.3l8.3-8.2  C30.1,9.4,30.1,8.8,29.8,8.5z"></path></svg>