<svg xmlns="http://www.w3.org/2000/svg" fill="#FFFFFF" enable-background="new 0 0 70 70" viewBox="0 0 70 70"><path d="M17.9253025 34.3009033c3.7958984-.7553711 9.2421875-.9438477 13.6494141 2.4199219.1357422.1035156.2958984.1538086.4541035.1538086.7175598 0 1.0222816-.9135399.4560547-1.3461914-4.8515644-3.7041035-10.7558613-3.5117188-14.8505878-2.6992188-.40625.0805664-.6708984.4755859-.5898438.8818359C17.1245213 34.1177979 17.5258884 34.3809814 17.9253025 34.3009033zM15.8559675 39.2418213c.1132641.3984375.5263662.6298828.9257803.5170898 4.546875-1.2880859 9.5654297-.6655273 13.7714844 1.7055664.1162109.0654297.2431641.0966797.3671875.0966797.7710209 0 1.0383224-1.0271339.3691406-1.4033203-4.5527344-2.5664063-9.9902344-3.2368164-14.9160156-1.8422852C15.9751081 38.4283447 15.7426863 38.8428955 15.8559675 39.2418213zM52.3842888 38.0562744c-4.0507813-2.2197266-9.0732422-1.6279297-13.4335938 1.5820313-.3339844.2456055-.4052734.7148438-.1601563 1.0483398.2459068.333847.7158356.4051552 1.0488281.159668 3.8798637-2.855957 8.3007813-3.40625 11.8242188-1.4746094.3652344.199707.8203125.0654297 1.0185547-.2973633C52.8803825 38.7110596 52.74757 38.2554932 52.3842888 38.0562744zM19.0571384 28.5181866c3.7949219-.753418 9.2431641-.9453125 13.6484394 2.4199219.1357422.1035156.2958984.1538086.4541016.1538086.7175598 0 1.0222816-.913538.4560547-1.3461914-4.8496113-3.7045898-10.751955-3.5117188-14.8496113-2.6992188-.4072266.0805664-.6708984.4755859-.5898438.8818359C18.2563572 28.3350811 18.6557713 28.5972881 19.0571384 28.5181866zM38.9702263 34.7745361c-.3339844.2456055-.4052734.7148438-.1601563 1.0483398.2459068.333847.7158356.4051552 1.0488281.159668 3.8789063-2.8535156 8.2998047-3.4072266 11.8251953-1.4746094.3652344.199707.8193359.0654297 1.0185547-.2973633.1982422-.3632813.0654297-.8193359-.2978516-1.0180664C48.3520622 30.9727764 43.3305779 31.5645733 38.9702263 34.7745361zM39.6948357 31.0635967c3.8789063-2.8549805 8.2998047-3.4067383 11.8251953-1.4750977.3642578.199707.8203125.0654297 1.0185547-.2973633.1982422-.3632813.0654297-.8193359-.2978516-1.0180664-4.0498047-2.2192383-9.0742188-1.6274414-13.4345703 1.5825195-.3339844.2456055-.4052734.7148438-.1601563 1.0488281C38.8909683 31.2361698 39.3603821 31.3101654 39.6948357 31.0635967z"/><path d="M5.8810525 54.7396851c7.1115565.5605888 14.3129711-1.4925156 21.3914185-.3656006 1.6154785.2571411 3.2911377.6741333 4.8466206.109314.7874146-.2858887 1.5280151-.8197021 2.3533325-.8406982.7566528-.019165 1.3649902.3956299 2.0360718.7017822 3.9214821 1.7892494 10.8549156-1.8117561 27.300415.2524414 3.0909615.3879242 3.3442726-1.6677856 3.277523-1.9381104-.0945206-.5412064-1.0588837-7.2223015-1.1552734-7.7885742-2.392971-14.411808-2.248436-13.3741989-2.317379-13.5043964-.4472008-.8395386-1.8108177-1.0589218-2.2695503-1.3261719-1.8270683-1.0732422-3.3249931-3.2098389-4.579998-6.53302l-.0137329-.1002808c-.1847267-1.3376522-2.423008-.0954037-8.9375-.9194336-2.2720947-.288063-3.6680756-.4213181-5.8388672.1557617-2.4987068.6653728-4.6255684 1.9376469-6.0543823 4.1296997-.4279175-.7529297-1.0097656-1.4430542-1.7561646-2.0022583-2.6410675-1.9986744-5.8290482-1.9377613-8.8808613-1.7963867-10.595479.5363655-10.344862.268301-10.7474966.6626587-.3630114.0562305-.4752569.2728195-.5871582.4024048-.3380127.1775513-.6293945.4678345-.9038086.7625732-2.281846 2.4508896-2.3689623 2.9960938-3.2199097 3.4641724-1.0153198.5585327-2.1054692 1.3443604-2.3716435 2.6942749C7.4175811 31.1380157 3.4029572 51.4772186 3.265635 52.1729126c-.1157227.5460815-.2449341 1.0883179-.3606567 1.6343384.0438843.0187378.0858154.0254517.1290894.0420532C3.2363381 54.992981 5.0953469 54.6777954 5.8810525 54.7396851zM58.174572 44.9921875c2.2594032 2.2317123 4.3043518 4.9800262 5.9064903 6.878418-8.1573448-.7526855-15.6401329-1.1298828-23.1088829.3570557-2.0192184.4038429-1.604969-.0741158-3.0335693-.8870239 1.4747849-1.418232 4.7580147-2.8989029 8.7015381-2.7926636 2.8122368.069397 5.6215744.8293648 8.4589844.0375977.3994141-.1113281.6328125-.5249023.5214844-.9238281s-.5234375-.6313477-.9238281-.5214844c-2.4908981.6940651-5.2409439-.0219803-8.0195313-.0922852-3.6341972-.0851135-8.0950089 1.1735649-10.206604 3.6917725-.6466026-.1613274-.883606-.1427002-.9840088-.1496582l.0557251-1.1919556c.1685791-.4588013.4255981-.9128418.7813721-1.3535767 1.828125-2.2988281 4.7529297-3.0488281 7.6484375-3.5180664 2.5501633-.4404526 3.4005661-.3176804 6.2246094.027832C52.8324089 44.8693237 55.5188103 45.0134888 58.174572 44.9921875zM33.9809685 50.0147705c.0128174.0270386.0189819.0562134.0272827.085083l-.0261841.5596924c-.2570801.0415649-.506897.1019897-.7532959.1744385-1.7132587-1.7415771-4.1862812-2.9263306-6.9753437-3.3358154-2.2529297-.3310547-4.6835938-.2041016-7.6552734.3984375-.4052734.0820313-.6679688.4780273-.5859375.8837891.0820141.40625.4746094.6660156.8847656.5859375 4.5031872-.9114914 9.3854618-.9330368 12.8414307 2.1256104-3.1049957 1.9129753.888586-.6674347-19.1148682.618042-2.2509766.1444092-4.5592651.27771-6.8469853.3363037l4.6923833-5.7959595c.7644453.1142693 5.9742403-2.055542 15.0618277-1.7356567C29.7112713 45.0528793 32.4147491 46.0287895 33.9809685 50.0147705zM9.3344831 45.3575439c-.069418.1462479-.2055607.2528229-.2098389.5692749l-4.002564 4.9441528c4.9358268-22.7549667 4.190454-19.2144413 4.2553716-19.6730976.0253906-.1713867.0712891-.4907227.0996094-.5600586.0556641-.059082.2910156-.1464844.4306641-.1987305 1.7500629-.654108 3.066186-2.6215458 4.1732178-4.1391602L9.3344831 45.3575439zM62.2602654 32.0455322c.2279625 1.9946976.7414398 3.8398285 3.0661583 18.9703979-1.1831818-1.3775177-3.5155678-4.4622383-5.7614708-6.7470093.053154-.3417168.1527634.9736824-2.164978-16.1258564C59.7546196 31.7087536 61.6657906 31.6139278 62.2602654 32.0455322zM44.138195 23.770628c1.5359764-.1287689 3.1063423.1864948 4.7509766.3540039 2.1827316.2218513 4.387867.1613522 6.4639282.1341553L57.990612 43.491333c-8.4894485.039814-9.2150612-1.3169785-14.2655029-.4443359-2.9420166.4765015-5.9217529 1.2567139-8.0489502 3.4907227l.8274536-17.6932392C37.7385368 25.7307835 41.1197853 23.9782143 44.138195 23.770628zM29.5395603 24.5323467c2.4474792.3415833 4.8961964 1.6296864 5.5015278 3.9942627-1.2612991 26.2487354-.7832642 16.3004017-.8953857 18.633791-2.130722-2.961834-4.9296665-3.6247787-8.5641499-3.744751-4.8995361-.171875-9.8230581.3787231-14.6229849 1.6261597l5.0217896-20.1634541C26.8545189 24.4169178 27.7207909 24.2935658 29.5395603 24.5323467zM60.3940544 20.1490459c-.3730469.1806641-.5283203.6293945-.3476563 1.0019531.1817551.3744488.6320915.5274506 1.0019531.3476563l2.6650391-1.2929688c.3730431-.1806641.5283165-.6289063.3476524-1.0019531-.1806602-.3710938-.6269493-.5283203-1.0019493-.3476563L60.3940544 20.1490459zM57.9692307 16.1148663l-1.0253716 2.3598633c-.2154922.4996071.154171 1.0483398.6884766 1.0483398.2890625 0 .5654297-.1689453.6884766-.4516602l1.0234184-2.3588867c.1650581-.3798828-.00877-.8217764-.3886528-.9868155C58.5776482 15.5631094 58.1342888 15.7344961 57.9692307 16.1148663zM53.8452263 15.1685781c-.3974609.1157227-.6259956.5322266-.5097656.9301748l.5927734 2.0405273c.0957031.328125.3955078.5410156.7207031.5410156.498661 0 .8595924-.4793453.7207031-.9589844l-.5947266-2.0424795C54.6596794 15.2808828 54.2446404 15.0543203 53.8452263 15.1685781z"/></svg>