<?xml version="1.0" encoding="UTF-8"?>
<!DOCTYPE svg PUBLIC "-//W3C//DTD SVG 1.1//EN" "http://www.w3.org/Graphics/SVG/1.1/DTD/svg11.dtd">
<!-- Creator: CorelDRAW 2020 (64-Bit) -->
<svg xmlns="http://www.w3.org/2000/svg" xml:space="preserve" width="117px" height="38px" version="1.1" style="shape-rendering:geometricPrecision; text-rendering:geometricPrecision; image-rendering:optimizeQuality; fill-rule:evenodd; clip-rule:evenodd"
viewBox="0 0 24.92 8.14"
 xmlns:xlink="http://www.w3.org/1999/xlink"
 xmlns:xodm="http://www.corel.com/coreldraw/odm/2003">
 <defs>
  <style type="text/css">
   <![CDATA[
    .fil0 {fill:white}
   ]]>
  </style>
 </defs>
 <g id="Слой_x0020_1">
  <metadata id="CorelCorpID_0Corel-Layer"/>
  <g id="_2244224028208">
   <path class="fil0" d="M4.16 6.32c0.21,0.06 1.07,0.53 1.15,0.61l0 -6.49c-0.05,-0.08 -0.46,-0.36 -0.58,-0.44 -0.14,0.05 -0.6,0.43 -0.57,0.46l0 5.86zm1.07 0.44c-0.21,-0.12 -0.28,-0.13 -0.5,-0.26l0 -6.41c0.24,0.18 0.42,0.32 0.5,0.37l0 6.3z"/>
   <path class="fil0" d="M2.52 5.78c0.16,0.02 1.02,0.27 1.15,0.34l0 -3.64c-0.05,-0.08 -0.46,-0.36 -0.59,-0.44 -0.13,0.05 -0.59,0.43 -0.56,0.46l0 3.28zm1.07 0.22c-0.24,-0.07 -0.24,-0.08 -0.51,-0.17l0.01 -3.7c0.25,0.19 0.4,0.29 0.5,0.36l0 3.51z"/>
   <path class="fil0" d="M0.89 5.81c0.26,-0.06 0.7,-0.15 1.15,-0.09l-0.01 -1.34c-0.04,-0.08 -0.46,-0.36 -0.58,-0.44 -0.13,0.05 -0.59,0.43 -0.56,0.46l0 1.41zm1.07 -0.18c-0.22,-0.01 -0.28,-0.01 -0.51,0.01l0.01 -1.6c0.24,0.17 0.38,0.27 0.49,0.35l0.01 1.24z"/>
   <path class="fil0" d="M0 7.32c0,0.2 0.05,0.3 0.05,0.37 1.42,-0.95 4.85,-0.37 6.12,0.45 -0.97,-0.94 -3.04,-1.88 -4.42,-1.88 -0.44,0 -0.88,0.08 -1.18,0.23 -0.29,0.14 -0.57,0.4 -0.57,0.83zm0.1 0.26c1.26,-0.89 4.39,-0.38 5.62,0.26 -1.17,-0.95 -5.58,-2.07 -5.62,-0.26z"/>
  </g>
  <g id="_2244224041072">
   <path class="fil0" d="M12.98 5.66l0.28 -0.87c0.03,-0.09 0.06,-0.22 0.1,-0.3l1 0c-0.1,0.2 -0.19,0.71 -0.35,0.92 -0.26,0.34 -0.56,0.25 -1.03,0.25zm1.74 -2.23l-0.97 0c0,-0.08 0.11,-0.35 0.14,-0.43 0.1,-0.27 0.25,-0.54 0.6,-0.54 0.19,0 0.38,0 0.57,0l-0.34 0.97zm-3.83 3.88c0.71,0 1.42,0 2.13,0 1.06,0.01 2.13,-0.85 2.5,-1.77l0.35 -0.99c0.02,-0.07 0.04,-0.12 0.07,-0.2 0.02,-0.07 0.04,-0.13 0.07,-0.2 0.02,-0.06 0.06,-0.14 0.06,-0.2l-0.61 0 0.1 -0.04c0.04,-0.02 0.07,-0.03 0.1,-0.05 0.18,-0.08 0.35,-0.26 0.45,-0.44 0.03,-0.07 0.05,-0.13 0.08,-0.2 0.02,-0.07 0.05,-0.14 0.08,-0.22 0.15,-0.47 0.43,-1.28 0.6,-1.74l0.15 -0.44c-0.4,0 -2.02,-0.03 -2.33,0.03 -0.7,0.12 -1.16,0.46 -1.63,0.92 -0.05,0.04 -0.06,0.07 -0.1,0.11 -0.45,0.52 -0.45,0.82 -0.65,1.33l-0.2 0.58c-0.32,0.96 -0.7,1.97 -1.02,2.93 -0.05,0.14 -0.17,0.47 -0.2,0.59z"/>
   <path class="fil0" d="M8.44 5.66l0.28 -0.88c0.02,-0.07 0.08,-0.22 0.09,-0.29l1 0 -0.23 0.71c-0.04,0.09 -0.06,0.13 -0.12,0.21 -0.05,0.07 -0.09,0.11 -0.16,0.16 -0.23,0.15 -0.51,0.09 -0.86,0.09zm1.74 -2.23l-0.99 0 0.15 -0.43c0.08,-0.26 0.27,-0.54 0.59,-0.54 0.19,0 0.38,0 0.58,0l-0.25 0.72c-0.03,0.08 -0.07,0.18 -0.08,0.25zm-3.83 3.88l2.11 0c0.56,0 1.33,-0.36 1.68,-0.71 0.02,-0.02 0.03,-0.03 0.06,-0.05l0.27 -0.28c0.39,-0.46 0.52,-0.91 0.71,-1.48l0.23 -0.64c0.09,-0.26 0.19,-0.2 -0.55,-0.2l0.2 -0.09c0.38,-0.19 0.48,-0.48 0.61,-0.87l0.75 -2.17c-0.43,0 -1.97,-0.03 -2.32,0.04 -0.37,0.06 -0.81,0.26 -1.09,0.47 -0.08,0.06 -0.15,0.11 -0.22,0.17 -0.18,0.15 -0.43,0.43 -0.56,0.63 -0.36,0.53 -0.45,1.12 -0.68,1.68 -0.03,0.09 -0.06,0.18 -0.09,0.28l-0.31 0.88c-0.03,0.09 -0.06,0.2 -0.1,0.29l-0.65 1.9c-0.02,0.05 -0.05,0.08 -0.05,0.15z"/>
   <path class="fil0" d="M20.14 4.05c0,0.06 0.04,0.19 0.06,0.23 0.15,0.23 0.45,0.21 0.7,0.21 0.4,0 0.81,0 1.21,0 0,0.06 -0.07,0.21 -0.09,0.27 -0.1,0.3 -0.17,0.47 -0.43,0.69 -0.12,0.09 -0.33,0.21 -0.53,0.21l-1.5 0c-0.05,0.01 -0.05,0.07 -0.07,0.12 -0.02,0.05 -0.03,0.09 -0.05,0.14 -0.05,0.15 -0.47,1.32 -0.47,1.39l1.87 0c0.8,0 1.64,-0.56 2.11,-1.18 0.03,-0.04 0.04,-0.06 0.07,-0.09 0.26,-0.37 0.4,-0.85 0.54,-1.29l1.36 -3.93 -1.54 0 -0.9 2.61 -0.64 0c0.02,-0.1 0.07,-0.22 0.11,-0.32l0.79 -2.29 -1.54 0c-0.01,0.1 -0.16,0.47 -0.2,0.6 -0.02,0.07 -0.04,0.13 -0.07,0.2l-0.55 1.6c-0.04,0.12 -0.08,0.26 -0.13,0.39 -0.04,0.12 -0.11,0.3 -0.11,0.44z"/>
   <path class="fil0" d="M15.49 7.31l1.7 0 1.23 -3.58c0.18,-0.51 0.25,-0.92 0.77,-1.18 0.26,-0.13 0.5,-0.1 0.87,-0.1l0.55 -1.63c-0.36,0 -1.05,-0.03 -1.4,0.04 -0.45,0.09 -0.86,0.31 -1.21,0.6l-0.2 0.17c-0.49,0.49 -0.59,0.75 -0.81,1.37l-1.5 4.31z"/>
  </g>
 </g>
</svg>
